# xmcd
#
# Track frame offsets:
#	150
#	11487
#	20958
#	30141
#	40812
#	50583
#	65086
#	76776
#	90824
#	100728
#	112639
#	122909
#	133815
#	142009
#	150860
#
# Disc length: 2192 seconds
#
# Revision: 1
# Processed by: cddbd v1.4PL0 Copyright (c) Steve Scherf et al.
# Submitted via: audiograbber 1.81.03
#
DISCID=b0088e0f
DTITLE=Graciela Beltran - 15 Exitos Con Banday Mariachi
DYEAR=1999
DGENRE=Latin
TTITLE0=Baraja De Oro
TTITLE1=Pilares De Cristal
TTITLE2=Voy A Morir Por Ti
TTITLE3=Ojos Traicioneros
TTITLE4=Sentimiento De Dolor
TTITLE5=Paloma Sin Nido
TTITLE6=La Madreselva
TTITLE7=Morena Y Delgadita
TTITLE8=Mi Tiempo De Amar
TTITLE9=Los Sufrimientos
TTITLE10=El Amor No Se Vende
TTITLE11=No Eres El Mismo De Ayer
TTITLE12=Te Perdi La Fe
TTITLE13=Una Carta Y Un Clavel
TTITLE14=Amarga Navidad
EXTD=
EXTT0=
EXTT1=
EXTT2=
EXTT3=
EXTT4=
EXTT5=
EXTT6=
EXTT7=
EXTT8=
EXTT9=
EXTT10=
EXTT11=
EXTT12=
EXTT13=
EXTT14=
PLAYORDER=
